Stretch Light Wide Cy Sc vv(-6.4-0.0)-(110.0-100.0)-0.0-0.0-(0.0-0.0).ufo
<glyph name="be-cy.sc" format="1">
  <advance width="1395"/>
  <outline>
    <contour>
      <point x="760" y="-144" type="move" name="mark0"/>
    </contour>
    <contour>
      <point x="508" y="764" type="curve"/>
      <point x="508" y="1208" type="line"/>
      <point x="1062" y="1196" type="line"/>
      <point x="1128" y="972" type="line"/>
      <point x="1248" y="972" type="line"/>
      <point x="1226" y="1292" type="line"/>
      <point x="117" y="1292" type="line"/>
      <point x="117" y="1210" type="line"/>
      <point x="340" y="1192" type="line"/>
      <point x="340" y="96" type="line"/>
      <point x="115" y="80" type="line"/>
      <point x="115" y="0" type="line"/>
      <point x="430" y="0" type="line" smooth="yes"/>
      <point x="518" y="0"/>
      <point x="707" y="-14"/>
      <point x="757" y="-14" type="curve" smooth="yes"/>
      <point x="1088" y="-14"/>
      <point x="1319" y="130"/>
      <point x="1319" y="406" type="curve" smooth="yes"/>
      <point x="1319" y="644"/>
      <point x="1136" y="782"/>
      <point x="786" y="782" type="curve" smooth="yes"/>
      <point x="685" y="782"/>
      <point x="562" y="772"/>
    </contour>
    <contour>
      <point x="508" y="92" type="curve"/>
      <point x="508" y="672" type="line"/>
      <point x="551" y="678"/>
      <point x="650" y="682"/>
      <point x="741" y="682" type="curve" smooth="yes"/>
      <point x="986" y="682"/>
      <point x="1138" y="594"/>
      <point x="1138" y="394" type="curve" smooth="yes"/>
      <point x="1138" y="186"/>
      <point x="987" y="76"/>
      <point x="742" y="76" type="curve" smooth="yes"/>
      <point x="611" y="76"/>
      <point x="569" y="86"/>
    </contour>
  </outline>
</glyph>
<glyph name="che-cy.sc" format="1">
  <advance width="1418"/>
  <outline>
    <contour>
      <point x="651" y="1272" type="move" name="top"/>
    </contour>
    <contour>
      <point x="715" y="648" type="move" name="center"/>
    </contour>
    <contour>
      <point x="1383" y="0" type="move" name="bottomright"/>
    </contour>
    <contour>
      <point x="960" y="574" type="curve"/>
      <point x="960" y="98" type="line"/>
      <point x="741" y="80" type="line"/>
      <point x="741" y="0" type="line"/>
      <point x="1324" y="0" type="line"/>
      <point x="1324" y="80" type="line"/>
      <point x="1128" y="98" type="line"/>
      <point x="1128" y="1192" type="line"/>
      <point x="1322" y="1210" type="line"/>
      <point x="1322" y="1292" type="line"/>
      <point x="763" y="1292" type="line"/>
      <point x="763" y="1210" type="line"/>
      <point x="960" y="1192" type="line"/>
      <point x="960" y="666" type="line"/>
      <point x="898" y="638"/>
      <point x="737" y="612"/>
      <point x="624" y="612" type="curve" smooth="yes"/>
      <point x="342" y="612"/>
      <point x="311" y="668"/>
      <point x="311" y="948" type="curve" smooth="yes"/>
      <point x="311" y="1190" type="line"/>
      <point x="505" y="1210" type="line"/>
      <point x="505" y="1292" type="line"/>
      <point x="10" y="1292" type="line"/>
      <point x="10" y="1210" type="line"/>
      <point x="143" y="1190" type="line"/>
      <point x="143" y="896" type="line" smooth="yes"/>
      <point x="143" y="636"/>
      <point x="220" y="500"/>
      <point x="537" y="500" type="curve" smooth="yes"/>
      <point x="668" y="500"/>
      <point x="854" y="526"/>
    </contour>
  </outline>
</glyph>
<glyph name="chedescenderabkhasian-cy.sc" format="1">
  <advance width="1639"/>
  <outline>
    <contour>
      <point x="1511" y="46" type="curve"/>
      <point x="1521" y="302" type="line"/>
      <point x="1408" y="304" type="line"/>
      <point x="1366" y="162" type="line"/>
      <point x="1305" y="116"/>
      <point x="1198" y="72"/>
      <point x="1005" y="72" type="curve" smooth="yes"/>
      <point x="689" y="72"/>
      <point x="519" y="330"/>
      <point x="520" y="624" type="curve"/>
      <point x="1541" y="622" type="line"/>
      <point x="1550" y="658"/>
      <point x="1552" y="716"/>
      <point x="1552" y="794" type="curve" smooth="yes"/>
      <point x="1552" y="1124"/>
      <point x="1339" y="1306"/>
      <point x="1022" y="1306" type="curve" smooth="yes"/>
      <point x="661" y="1306"/>
      <point x="384" y="1072"/>
      <point x="352" y="712" type="curve"/>
      <point x="199" y="714"/>
      <point x="149" y="768"/>
      <point x="149" y="816" type="curve" smooth="yes"/>
      <point x="149" y="848"/>
      <point x="177" y="916"/>
      <point x="192" y="932" type="curve"/>
      <point x="50" y="954" type="line"/>
      <point x="26" y="942"/>
      <point x="-6" y="866"/>
      <point x="-6" y="810" type="curve" smooth="yes"/>
      <point x="-6" y="682"/>
      <point x="156" y="622"/>
      <point x="347" y="620" type="curve"/>
      <point x="349" y="240"/>
      <point x="587" y="-14"/>
      <point x="963" y="-20" type="curve"/>
      <point x="985" y="-52"/>
      <point x="1021" y="-112"/>
      <point x="1021" y="-170" type="curve" smooth="yes"/>
      <point x="1021" y="-276"/>
      <point x="963" y="-294"/>
      <point x="859" y="-294" type="curve" smooth="yes"/>
      <point x="839" y="-294"/>
      <point x="788" y="-288"/>
      <point x="762" y="-280" type="curve"/>
      <point x="759" y="-392" type="line"/>
      <point x="797" y="-404"/>
      <point x="863" y="-414"/>
      <point x="909" y="-414" type="curve" smooth="yes"/>
      <point x="1067" y="-414"/>
      <point x="1161" y="-372"/>
      <point x="1167" y="-248" type="curve" smooth="yes"/>
      <point x="1171" y="-154"/>
      <point x="1098" y="-60"/>
      <point x="1055" y="-18" type="curve"/>
      <point x="1290" y="-6"/>
      <point x="1405" y="44"/>
    </contour>
    <contour>
      <point x="1365" y="712" type="curve"/>
      <point x="518" y="712" type="line"/>
      <point x="531" y="1074"/>
      <point x="751" y="1210"/>
      <point x="978" y="1210" type="curve" smooth="yes"/>
      <point x="1253" y="1210"/>
      <point x="1374" y="994"/>
      <point x="1374" y="804" type="curve" smooth="yes"/>
      <point x="1374" y="772"/>
      <point x="1372" y="742"/>
    </contour>
  </outline>
</glyph>
<glyph name="chedieresis-cy.sc" format="1">
  <advance width="1418"/>
  <outline>
    <contour>
      <point x="876" y="1486" type="curve"/>
      <point x="964" y="1486"/>
      <point x="1008" y="1546"/>
      <point x="1008" y="1616" type="curve" smooth="yes"/>
      <point x="1008" y="1674"/>
      <point x="967" y="1732"/>
      <point x="895" y="1732" type="curve" smooth="yes"/>
      <point x="812" y="1732"/>
      <point x="769" y="1666"/>
      <point x="769" y="1600" type="curve" smooth="yes"/>
      <point x="769" y="1536"/>
      <point x="812" y="1486"/>
    </contour>
    <contour>
      <point x="402" y="1486" type="curve" smooth="yes"/>
      <point x="489" y="1486"/>
      <point x="533" y="1546"/>
      <point x="533" y="1616" type="curve" smooth="yes"/>
      <point x="533" y="1674"/>
      <point x="492" y="1732"/>
      <point x="420" y="1732" type="curve"/>
      <point x="335" y="1732"/>
      <point x="294" y="1666"/>
      <point x="294" y="1600" type="curve" smooth="yes"/>
      <point x="294" y="1536"/>
      <point x="335" y="1486"/>
    </contour>
    <contour>
      <point x="960" y="574" type="curve"/>
      <point x="960" y="98" type="line"/>
      <point x="741" y="80" type="line"/>
      <point x="741" y="0" type="line"/>
      <point x="1324" y="0" type="line"/>
      <point x="1324" y="80" type="line"/>
      <point x="1128" y="98" type="line"/>
      <point x="1128" y="1192" type="line"/>
      <point x="1322" y="1210" type="line"/>
      <point x="1322" y="1292" type="line"/>
      <point x="763" y="1292" type="line"/>
      <point x="763" y="1210" type="line"/>
      <point x="960" y="1192" type="line"/>
      <point x="960" y="666" type="line"/>
      <point x="898" y="638"/>
      <point x="737" y="612"/>
      <point x="624" y="612" type="curve" smooth="yes"/>
      <point x="342" y="612"/>
      <point x="311" y="668"/>
      <point x="311" y="948" type="curve" smooth="yes"/>
      <point x="311" y="1190" type="line"/>
      <point x="505" y="1210" type="line"/>
      <point x="505" y="1292" type="line"/>
      <point x="10" y="1292" type="line"/>
      <point x="10" y="1210" type="line"/>
      <point x="143" y="1190" type="line"/>
      <point x="143" y="896" type="line" smooth="yes"/>
      <point x="143" y="636"/>
      <point x="220" y="500"/>
      <point x="537" y="500" type="curve" smooth="yes"/>
      <point x="668" y="500"/>
      <point x="854" y="526"/>
    </contour>
  </outline>
</glyph>
<glyph name="cheverticalstroke-cy.sc" format="1">
  <advance width="1422"/>
  <outline>
    <contour>
      <point x="692" y="-144" type="move" name="mark0"/>
    </contour>
    <contour>
      <point x="965" y="570" type="curve"/>
      <point x="965" y="98" type="line"/>
      <point x="746" y="82" type="line"/>
      <point x="746" y="0" type="line"/>
      <point x="1328" y="0" type="line"/>
      <point x="1328" y="80" type="line"/>
      <point x="1135" y="98" type="line"/>
      <point x="1135" y="1192" type="line"/>
      <point x="1328" y="1210" type="line"/>
      <point x="1328" y="1292" type="line"/>
      <point x="770" y="1292" type="line"/>
      <point x="770" y="1212" type="line"/>
      <point x="965" y="1192" type="line"/>
      <point x="965" y="666" type="line"/>
      <point x="913" y="644"/>
      <point x="800" y="622"/>
      <point x="696" y="614" type="curve"/>
      <point x="696" y="878" type="line"/>
      <point x="596" y="878" type="line"/>
      <point x="596" y="612" type="line"/>
      <point x="359" y="614"/>
      <point x="315" y="672"/>
      <point x="315" y="948" type="curve" smooth="yes"/>
      <point x="315" y="1190" type="line"/>
      <point x="508" y="1212" type="line"/>
      <point x="508" y="1292" type="line"/>
      <point x="12" y="1292" type="line"/>
      <point x="12" y="1212" type="line"/>
      <point x="150" y="1190" type="line"/>
      <point x="150" y="896" type="line" smooth="yes"/>
      <point x="150" y="628"/>
      <point x="232" y="500"/>
      <point x="542" y="500" type="curve" smooth="yes"/>
      <point x="557" y="500"/>
      <point x="576" y="500"/>
      <point x="596" y="502" type="curve"/>
      <point x="596" y="308" type="line"/>
      <point x="696" y="308" type="line"/>
      <point x="696" y="508" type="line"/>
      <point x="794" y="520"/>
      <point x="888" y="538"/>
    </contour>
  </outline>
</glyph>
<glyph name="dje-cy.sc" format="1">
  <advance width="1721"/>
  <outline>
    <contour>
      <point x="699" y="-144" type="move" name="mark0"/>
    </contour>
    <contour>
      <point x="830" y="672" type="curve"/>
      <point x="830" y="1208" type="line"/>
      <point x="1279" y="1192" type="line"/>
      <point x="1317" y="884" type="line"/>
      <point x="1430" y="884" type="line"/>
      <point x="1437" y="1292" type="line"/>
      <point x="105" y="1292" type="line"/>
      <point x="76" y="884" type="line"/>
      <point x="194" y="884" type="line"/>
      <point x="251" y="1192" type="line"/>
      <point x="653" y="1208" type="line"/>
      <point x="653" y="100" type="line"/>
      <point x="375" y="82" type="line"/>
      <point x="375" y="0" type="line"/>
      <point x="1051" y="0" type="line"/>
      <point x="1051" y="82" type="line"/>
      <point x="830" y="98" type="line"/>
      <point x="830" y="586" type="line"/>
      <point x="941" y="624"/>
      <point x="1034" y="640"/>
      <point x="1146" y="640" type="curve" smooth="yes"/>
      <point x="1394" y="640"/>
      <point x="1472" y="522"/>
      <point x="1472" y="286" type="curve" smooth="yes"/>
      <point x="1472" y="-58"/>
      <point x="1382" y="-246"/>
      <point x="1147" y="-246" type="curve" smooth="yes"/>
      <point x="1111" y="-246"/>
      <point x="1074" y="-242"/>
      <point x="1059" y="-240" type="curve"/>
      <point x="1060" y="-330" type="line"/>
      <point x="1081" y="-340"/>
      <point x="1147" y="-346"/>
      <point x="1174" y="-346" type="curve" smooth="yes"/>
      <point x="1486" y="-346"/>
      <point x="1644" y="-66"/>
      <point x="1644" y="304" type="curve" smooth="yes"/>
      <point x="1644" y="560"/>
      <point x="1577" y="742"/>
      <point x="1187" y="742" type="curve" smooth="yes"/>
      <point x="1105" y="742"/>
      <point x="917" y="716"/>
    </contour>
  </outline>
</glyph>
<glyph name="e-cy.sc" format="1">
  <advance width="1378"/>
  <outline>
    <contour>
      <point x="824" y="0" type="move" name="mark0"/>
    </contour>
    <contour>
      <point x="1232" y="46" type="curve"/>
      <point x="1287" y="300" type="line"/>
      <point x="1184" y="308" type="line"/>
      <point x="1096" y="132" type="line"/>
      <point x="1037" y="98"/>
      <point x="972" y="72"/>
      <point x="803" y="72" type="curve" smooth="yes"/>
      <point x="470" y="72"/>
      <point x="305" y="328"/>
      <point x="288" y="610" type="curve"/>
      <point x="1018" y="594" type="line"/>
      <point x="1018" y="728" type="line"/>
      <point x="288" y="712" type="line"/>
      <point x="305" y="1034"/>
      <point x="515" y="1216"/>
      <point x="792" y="1216" type="curve" smooth="yes"/>
      <point x="970" y="1216"/>
      <point x="1048" y="1190"/>
      <point x="1098" y="1164" type="curve"/>
      <point x="1148" y="956" type="line"/>
      <point x="1256" y="956" type="line"/>
      <point x="1269" y="1250" type="line"/>
      <point x="1186" y="1262"/>
      <point x="1011" y="1306"/>
      <point x="818" y="1306" type="curve" smooth="yes"/>
      <point x="404" y="1306"/>
      <point x="83" y="1034"/>
      <point x="83" y="648" type="curve" smooth="yes"/>
      <point x="83" y="250"/>
      <point x="354" y="-20"/>
      <point x="798" y="-20" type="curve" smooth="yes"/>
      <point x="1044" y="-20"/>
      <point x="1122" y="42"/>
    </contour>
  </outline>
</glyph>
<glyph name="edieresis-cy.sc" format="1">
  <advance width="1458"/>
  <outline>
    <contour>
      <point x="995" y="1486" type="curve"/>
      <point x="1084" y="1486"/>
      <point x="1128" y="1546"/>
      <point x="1128" y="1616" type="curve" smooth="yes"/>
      <point x="1128" y="1674"/>
      <point x="1087" y="1732"/>
      <point x="1015" y="1732" type="curve" smooth="yes"/>
      <point x="932" y="1732"/>
      <point x="888" y="1666"/>
      <point x="888" y="1600" type="curve" smooth="yes"/>
      <point x="888" y="1536"/>
      <point x="932" y="1486"/>
    </contour>
    <contour>
      <point x="522" y="1486" type="curve" smooth="yes"/>
      <point x="609" y="1486"/>
      <point x="653" y="1546"/>
      <point x="653" y="1616" type="curve" smooth="yes"/>
      <point x="653" y="1674"/>
      <point x="611" y="1732"/>
      <point x="539" y="1732" type="curve"/>
      <point x="454" y="1732"/>
      <point x="413" y="1666"/>
      <point x="413" y="1600" type="curve" smooth="yes"/>
      <point x="413" y="1536"/>
      <point x="454" y="1486"/>
    </contour>
    <contour>
      <point x="204" y="1240" type="curve"/>
      <point x="196" y="970" type="line"/>
      <point x="320" y="970" type="line"/>
      <point x="372" y="1132" type="line"/>
      <point x="426" y="1168"/>
      <point x="495" y="1216"/>
      <point x="671" y="1216" type="curve" smooth="yes"/>
      <point x="997" y="1216"/>
      <point x="1147" y="980"/>
      <point x="1173" y="714" type="curve"/>
      <point x="450" y="730" type="line"/>
      <point x="450" y="596" type="line"/>
      <point x="1177" y="610" type="line"/>
      <point x="1173" y="270"/>
      <point x="967" y="74"/>
      <point x="689" y="74" type="curve" smooth="yes"/>
      <point x="506" y="74"/>
      <point x="415" y="118"/>
      <point x="363" y="148" type="curve"/>
      <point x="274" y="312" type="line"/>
      <point x="166" y="292" type="line"/>
      <point x="217" y="46" type="line"/>
      <point x="327" y="46"/>
      <point x="429" y="-20"/>
      <point x="655" y="-20" type="curve" smooth="yes"/>
      <point x="1081" y="-20"/>
      <point x="1378" y="246"/>
      <point x="1378" y="636" type="curve" smooth="yes"/>
      <point x="1378" y="1032"/>
      <point x="1122" y="1306"/>
      <point x="679" y="1306" type="curve" smooth="yes"/>
      <point x="412" y="1306"/>
      <point x="318" y="1244"/>
    </contour>
  </outline>
</glyph>
<glyph name="ef-cy.sc" format="1">
  <advance width="1544"/>
  <outline>
    <contour>
      <point x="771" y="-144" type="move" name="mark0"/>
    </contour>
    <contour>
      <point x="851" y="1102" type="curve"/>
      <point x="851" y="1226" type="line"/>
      <point x="1062" y="1246" type="line"/>
      <point x="1062" y="1328" type="line"/>
      <point x="483" y="1328" type="line"/>
      <point x="483" y="1246" type="line"/>
      <point x="694" y="1226" type="line"/>
      <point x="694" y="1102" type="line"/>
      <point x="290" y="1082"/>
      <point x="44" y="900"/>
      <point x="44" y="662" type="curve" smooth="yes"/>
      <point x="44" y="444"/>
      <point x="157" y="216"/>
      <point x="694" y="202" type="curve"/>
      <point x="694" y="68" type="line"/>
      <point x="483" y="46" type="line"/>
      <point x="483" y="-36" type="line"/>
      <point x="1064" y="-36" type="line"/>
      <point x="1064" y="44" type="line"/>
      <point x="851" y="66" type="line"/>
      <point x="851" y="204" type="line"/>
      <point x="1253" y="224"/>
      <point x="1500" y="418"/>
      <point x="1500" y="658" type="curve" smooth="yes"/>
      <point x="1500" y="884"/>
      <point x="1383" y="1090"/>
    </contour>
    <contour>
      <point x="694" y="1034" type="curve"/>
      <point x="694" y="276" type="line"/>
      <point x="311" y="298"/>
      <point x="237" y="494"/>
      <point x="237" y="672" type="curve" smooth="yes"/>
      <point x="237" y="850"/>
      <point x="323" y="1016"/>
    </contour>
    <contour>
      <point x="851" y="276" type="curve"/>
      <point x="851" y="1032" type="line"/>
      <point x="1242" y="1010"/>
      <point x="1305" y="826"/>
      <point x="1305" y="656" type="curve" smooth="yes"/>
      <point x="1305" y="460"/>
      <point x="1210" y="296"/>
    </contour>
  </outline>
</glyph>
<glyph name="eltail-cy.sc" format="1">
  <advance width="1550"/>
  <outline>
    <contour>
      <point x="613" y="-144" type="move" name="mark0"/>
    </contour>
    <contour>
      <point x="1483" y="0" type="curve"/>
      <point x="1483" y="96" type="line"/>
      <point x="1235" y="96" type="line"/>
      <point x="1235" y="1192" type="line"/>
      <point x="1434" y="1210" type="line"/>
      <point x="1434" y="1292" type="line"/>
      <point x="272" y="1292" type="line"/>
      <point x="272" y="1210" type="line"/>
      <point x="505" y="1192" type="line"/>
      <point x="505" y="1044" type="line" smooth="yes"/>
      <point x="505" y="588"/>
      <point x="443" y="324"/>
      <point x="333" y="196" type="curve"/>
      <point x="300" y="148"/>
      <point x="258" y="130"/>
      <point x="211" y="130" type="curve" smooth="yes"/>
      <point x="122" y="130"/>
      <point x="78" y="134"/>
      <point x="55" y="138" type="curve"/>
      <point x="65" y="0" type="line"/>
      <point x="90" y="-4"/>
      <point x="143" y="-10"/>
      <point x="209" y="-10" type="curve" smooth="yes"/>
      <point x="307" y="-10"/>
      <point x="379" y="28"/>
      <point x="439" y="112" type="curve" smooth="yes"/>
      <point x="561" y="280"/>
      <point x="621" y="612"/>
      <point x="621" y="1028" type="curve" smooth="yes"/>
      <point x="621" y="1192" type="line"/>
      <point x="1070" y="1192" type="line"/>
      <point x="1069" y="98" type="line"/>
      <point x="852" y="80" type="line"/>
      <point x="852" y="0" type="line"/>
      <point x="1329" y="0" type="line"/>
      <point x="1325" y="-20"/>
      <point x="1243" y="-304"/>
      <point x="1241" y="-320" type="curve"/>
      <point x="1362" y="-320" type="line"/>
      <point x="1364" y="-312"/>
      <point x="1482" y="-12"/>
    </contour>
  </outline>
</glyph>
<glyph name="enhook-cy.sc" format="1">
  <advance width="1744"/>
  <outline>
    <contour>
      <point x="874" y="-144" type="move" name="mark0"/>
    </contour>
    <contour>
      <point x="1451" y="450" type="curve" smooth="yes"/>
      <point x="1451" y="1192" type="line"/>
      <point x="1635" y="1210" type="line"/>
      <point x="1635" y="1292" type="line"/>
      <point x="1103" y="1292" type="line"/>
      <point x="1103" y="1210" type="line"/>
      <point x="1280" y="1192" type="line"/>
      <point x="1280" y="714" type="line"/>
      <point x="469" y="714" type="line"/>
      <point x="469" y="1192" type="line"/>
      <point x="652" y="1210" type="line"/>
      <point x="652" y="1292" type="line"/>
      <point x="126" y="1292" type="line"/>
      <point x="126" y="1210" type="line"/>
      <point x="299" y="1192" type="line"/>
      <point x="299" y="96" type="line"/>
      <point x="119" y="80" type="line"/>
      <point x="119" y="0" type="line"/>
      <point x="654" y="0" type="line"/>
      <point x="654" y="80" type="line"/>
      <point x="469" y="96" type="line"/>
      <point x="469" y="612" type="line"/>
      <point x="1278" y="612" type="line"/>
      <point x="1278" y="396" type="line" smooth="yes"/>
      <point x="1278" y="124"/>
      <point x="1279" y="20"/>
      <point x="1234" y="-64" type="curve"/>
      <point x="1186" y="-154"/>
      <point x="1080" y="-214"/>
      <point x="956" y="-238" type="curve"/>
      <point x="998" y="-310" type="line"/>
      <point x="1161" y="-284"/>
      <point x="1377" y="-186"/>
      <point x="1429" y="-24" type="curve"/>
      <point x="1453" y="88"/>
      <point x="1451" y="212"/>
    </contour>
  </outline>
</glyph>
<glyph name="ereversed-cy.sc" format="1">
  <advance width="1458"/>
  <outline>
    <contour>
      <point x="771" y="1272" type="move" name="top"/>
    </contour>
    <contour>
      <point x="204" y="1240" type="curve"/>
      <point x="196" y="970" type="line"/>
      <point x="320" y="970" type="line"/>
      <point x="372" y="1132" type="line"/>
      <point x="426" y="1168"/>
      <point x="495" y="1216"/>
      <point x="671" y="1216" type="curve" smooth="yes"/>
      <point x="997" y="1216"/>
      <point x="1147" y="980"/>
      <point x="1173" y="714" type="curve"/>
      <point x="450" y="730" type="line"/>
      <point x="450" y="596" type="line"/>
      <point x="1177" y="610" type="line"/>
      <point x="1173" y="270"/>
      <point x="967" y="74"/>
      <point x="689" y="74" type="curve" smooth="yes"/>
      <point x="506" y="74"/>
      <point x="415" y="118"/>
      <point x="363" y="148" type="curve"/>
      <point x="274" y="312" type="line"/>
      <point x="166" y="292" type="line"/>
      <point x="217" y="46" type="line"/>
      <point x="327" y="46"/>
      <point x="429" y="-20"/>
      <point x="655" y="-20" type="curve" smooth="yes"/>
      <point x="1081" y="-20"/>
      <point x="1378" y="246"/>
      <point x="1378" y="636" type="curve" smooth="yes"/>
      <point x="1378" y="1032"/>
      <point x="1122" y="1306"/>
      <point x="679" y="1306" type="curve" smooth="yes"/>
      <point x="412" y="1306"/>
      <point x="318" y="1244"/>
    </contour>
  </outline>
</glyph>
<glyph name="ge-cy.sc" format="1">
  <advance width="1200"/>
  <outline>
    <contour>
      <point x="753" y="1272" type="move" name="top"/>
    </contour>
    <contour>
      <point x="602" y="648" type="move" name="center"/>
    </contour>
    <contour>
      <point x="345" y="0" type="move" name="bottomright"/>
    </contour>
    <contour>
      <point x="73" y="1292" type="line"/>
      <point x="73" y="1212" type="line"/>
      <point x="297" y="1190" type="line"/>
      <point x="297" y="98" type="line"/>
      <point x="64" y="80" type="line"/>
      <point x="64" y="0" type="line"/>
      <point x="854" y="0" type="line"/>
      <point x="854" y="80" type="line"/>
      <point x="472" y="98" type="line"/>
      <point x="472" y="1208" type="line"/>
      <point x="987" y="1196" type="line"/>
      <point x="1041" y="844" type="line"/>
      <point x="1156" y="844" type="line"/>
      <point x="1149" y="1292" type="line"/>
    </contour>
  </outline>
</glyph>
<glyph name="gedescender-cy.sc" format="1">
  <advance width="1191"/>
  <outline>
    <contour>
      <point x="676" y="-144" type="move" name="mark0"/>
    </contour>
    <contour>
      <point x="904" y="98" type="curve"/>
      <point x="472" y="98" type="line"/>
      <point x="472" y="1208" type="line"/>
      <point x="987" y="1196" type="line"/>
      <point x="1040" y="844" type="line"/>
      <point x="1156" y="844" type="line"/>
      <point x="1149" y="1292" type="line"/>
      <point x="73" y="1292" type="line"/>
      <point x="73" y="1212" type="line"/>
      <point x="297" y="1190" type="line"/>
      <point x="297" y="98" type="line"/>
      <point x="64" y="80" type="line"/>
      <point x="64" y="0" type="line"/>
      <point x="718" y="0" type="line"/>
      <point x="721" y="-20"/>
      <point x="735" y="-274"/>
      <point x="735" y="-320" type="curve"/>
      <point x="847" y="-320" type="line"/>
      <point x="848" y="-314"/>
      <point x="904" y="74"/>
    </contour>
  </outline>
</glyph>
<glyph name="gheupturn-cy.sc" format="1">
  <advance width="1205"/>
  <outline>
    <contour>
      <point x="700" y="-144" type="move" name="mark0"/>
    </contour>
    <contour>
      <point x="1037" y="1598" type="line"/>
      <point x="981" y="1292" type="line"/>
      <point x="94" y="1292" type="line"/>
      <point x="94" y="1212" type="line"/>
      <point x="328" y="1190" type="line"/>
      <point x="328" y="98" type="line"/>
      <point x="89" y="80" type="line"/>
      <point x="89" y="0" type="line"/>
      <point x="880" y="0" type="line"/>
      <point x="880" y="80" type="line"/>
      <point x="503" y="98" type="line"/>
      <point x="503" y="1206" type="line"/>
      <point x="1141" y="1198" type="line"/>
      <point x="1161" y="1598" type="line"/>
    </contour>
  </outline>
</glyph>
<glyph name="gje-cy.sc" format="1">
  <advance width="1200"/>
  <outline>
    <contour>
      <point x="673" y="1440" type="line"/>
      <point x="777" y="1484"/>
      <point x="1036" y="1692"/>
      <point x="1092" y="1770" type="curve"/>
      <point x="947" y="1880" type="line"/>
      <point x="608" y="1494" type="line"/>
    </contour>
    <contour>
      <point x="73" y="1292" type="line"/>
      <point x="73" y="1212" type="line"/>
      <point x="297" y="1190" type="line"/>
      <point x="297" y="98" type="line"/>
      <point x="64" y="80" type="line"/>
      <point x="64" y="0" type="line"/>
      <point x="854" y="0" type="line"/>
      <point x="854" y="80" type="line"/>
      <point x="472" y="98" type="line"/>
      <point x="472" y="1208" type="line"/>
      <point x="987" y="1196" type="line"/>
      <point x="1041" y="844" type="line"/>
      <point x="1156" y="844" type="line"/>
      <point x="1149" y="1292" type="line"/>
    </contour>
  </outline>
</glyph>
<glyph name="hadescender-cy.sc" format="1">
  <advance width="1503"/>
  <outline>
    <contour>
      <point x="753" y="-144" type="move" name="mark0"/>
    </contour>
    <contour>
      <point x="1539" y="98" type="curve"/>
      <point x="1324" y="98" type="line"/>
      <point x="845" y="674" type="line"/>
      <point x="1286" y="1190" type="line"/>
      <point x="1453" y="1210" type="line"/>
      <point x="1453" y="1292" type="line"/>
      <point x="950" y="1292" type="line"/>
      <point x="950" y="1210" type="line"/>
      <point x="1140" y="1192" type="line"/>
      <point x="787" y="736" type="line"/>
      <point x="432" y="1190" type="line"/>
      <point x="649" y="1210" type="line"/>
      <point x="649" y="1292" type="line"/>
      <point x="59" y="1292" type="line"/>
      <point x="59" y="1210" type="line"/>
      <point x="221" y="1190" type="line"/>
      <point x="667" y="650" type="line"/>
      <point x="203" y="96" type="line"/>
      <point x="20" y="80" type="line"/>
      <point x="20" y="0" type="line"/>
      <point x="575" y="0" type="line"/>
      <point x="575" y="80" type="line"/>
      <point x="358" y="96" type="line"/>
      <point x="729" y="586" type="line"/>
      <point x="1114" y="98" type="line"/>
      <point x="906" y="80" type="line"/>
      <point x="906" y="0" type="line"/>
      <point x="1353" y="0" type="line"/>
      <point x="1354" y="-12"/>
      <point x="1368" y="-270"/>
      <point x="1370" y="-314" type="curve"/>
      <point x="1482" y="-314" type="line"/>
      <point x="1486" y="-304"/>
      <point x="1539" y="84"/>
    </contour>
  </outline>
</glyph>
<glyph name="hahook-cy.sc" format="1">
  <advance width="1505"/>
  <outline>
    <contour>
      <point x="849" y="688" type="curve"/>
      <point x="1286" y="1190" type="line"/>
      <point x="1453" y="1210" type="line"/>
      <point x="1453" y="1292" type="line"/>
      <point x="950" y="1292" type="line"/>
      <point x="950" y="1210" type="line"/>
      <point x="1140" y="1192" type="line"/>
      <point x="792" y="750" type="line"/>
      <point x="432" y="1190" type="line"/>
      <point x="649" y="1210" type="line"/>
      <point x="649" y="1292" type="line"/>
      <point x="59" y="1292" type="line"/>
      <point x="59" y="1210" type="line"/>
      <point x="221" y="1190" type="line"/>
      <point x="671" y="662" type="line"/>
      <point x="203" y="96" type="line"/>
      <point x="20" y="80" type="line"/>
      <point x="20" y="0" type="line"/>
      <point x="575" y="0" type="line"/>
      <point x="575" y="80" type="line"/>
      <point x="358" y="96" type="line"/>
      <point x="732" y="598" type="line"/>
      <point x="1085" y="210"/>
      <point x="1149" y="74"/>
      <point x="1149" y="-38" type="curve" smooth="yes"/>
      <point x="1149" y="-134"/>
      <point x="1087" y="-204"/>
      <point x="907" y="-254" type="curve"/>
      <point x="950" y="-344" type="line"/>
      <point x="1253" y="-268"/>
      <point x="1316" y="-122"/>
      <point x="1316" y="12" type="curve" smooth="yes"/>
      <point x="1316" y="178"/>
      <point x="1150" y="368"/>
    </contour>
  </outline>
</glyph>
<glyph name="hardsign-cy.sc" format="1">
  <advance width="1716"/>
  <outline>
    <contour>
      <point x="773" y="-144" type="move" name="mark0"/>
    </contour>
    <contour>
      <point x="1110" y="784" type="curve" smooth="yes"/>
      <point x="834" y="784" type="line"/>
      <point x="834" y="1192" type="line"/>
      <point x="1025" y="1212" type="line"/>
      <point x="1025" y="1292" type="line"/>
      <point x="114" y="1292" type="line"/>
      <point x="88" y="864" type="line"/>
      <point x="208" y="864" type="line"/>
      <point x="263" y="1192" type="line"/>
      <point x="659" y="1208" type="line"/>
      <point x="659" y="98" type="line"/>
      <point x="384" y="80" type="line"/>
      <point x="384" y="0" type="line"/>
      <point x="754" y="0" type="line" smooth="yes"/>
      <point x="842" y="0"/>
      <point x="1031" y="-14"/>
      <point x="1082" y="-14" type="curve" smooth="yes"/>
      <point x="1411" y="-14"/>
      <point x="1639" y="130"/>
      <point x="1639" y="406" type="curve" smooth="yes"/>
      <point x="1639" y="644"/>
      <point x="1453" y="784"/>
    </contour>
    <contour>
      <point x="834" y="88" type="curve"/>
      <point x="834" y="688" type="line"/>
      <point x="1067" y="688" type="line" smooth="yes"/>
      <point x="1314" y="688"/>
      <point x="1460" y="592"/>
      <point x="1460" y="394" type="curve" smooth="yes"/>
      <point x="1460" y="188"/>
      <point x="1314" y="72"/>
      <point x="1066" y="72" type="curve" smooth="yes"/>
      <point x="936" y="72"/>
      <point x="888" y="80"/>
    </contour>
  </outline>
</glyph>
<glyph name="ia-cy.sc" format="1">
  <advance width="1471"/>
  <outline>
    <contour>
      <point x="1002" y="568" type="curve"/>
      <point x="1002" y="96" type="line"/>
      <point x="794" y="80" type="line"/>
      <point x="794" y="0" type="line"/>
      <point x="1377" y="0" type="line"/>
      <point x="1377" y="80" type="line"/>
      <point x="1172" y="96" type="line"/>
      <point x="1172" y="1192" type="line"/>
      <point x="1359" y="1210" type="line"/>
      <point x="1359" y="1292" type="line"/>
      <point x="1065" y="1292" type="line" smooth="yes"/>
      <point x="961" y="1292"/>
      <point x="875" y="1306"/>
      <point x="775" y="1306" type="curve" smooth="yes"/>
      <point x="472" y="1306"/>
      <point x="198" y="1244"/>
      <point x="198" y="936" type="curve" smooth="yes"/>
      <point x="198" y="752"/>
      <point x="325" y="628"/>
      <point x="503" y="586" type="curve"/>
      <point x="358" y="508"/>
      <point x="180" y="116"/>
      <point x="77" y="98" type="curve"/>
      <point x="-7" y="80" type="line"/>
      <point x="-7" y="0" type="line"/>
      <point x="230" y="0" type="line" smooth="yes"/>
      <point x="340" y="0"/>
      <point x="510" y="478"/>
      <point x="662" y="568" type="curve"/>
      <point x="774" y="568"/>
      <point x="890" y="568"/>
    </contour>
    <contour>
      <point x="1002" y="1204" type="curve"/>
      <point x="1002" y="664" type="line"/>
      <point x="961" y="660"/>
      <point x="874" y="658"/>
      <point x="746" y="658" type="curve" smooth="yes"/>
      <point x="511" y="658"/>
      <point x="374" y="762"/>
      <point x="374" y="952" type="curve" smooth="yes"/>
      <point x="374" y="1162"/>
      <point x="527" y="1216"/>
      <point x="746" y="1216" type="curve" smooth="yes"/>
      <point x="884" y="1216"/>
      <point x="931" y="1206"/>
    </contour>
  </outline>
</glyph>
<glyph name="idieresis-cy.sc" format="1">
  <advance width="1782"/>
  <outline>
    <contour>
      <point x="1137" y="1486" type="curve"/>
      <point x="1226" y="1486"/>
      <point x="1270" y="1546"/>
      <point x="1270" y="1616" type="curve" smooth="yes"/>
      <point x="1270" y="1674"/>
      <point x="1228" y="1732"/>
      <point x="1156" y="1732" type="curve" smooth="yes"/>
      <point x="1073" y="1732"/>
      <point x="1030" y="1666"/>
      <point x="1030" y="1600" type="curve" smooth="yes"/>
      <point x="1030" y="1536"/>
      <point x="1074" y="1486"/>
    </contour>
    <contour>
      <point x="664" y="1486" type="curve" smooth="yes"/>
      <point x="750" y="1486"/>
      <point x="794" y="1546"/>
      <point x="794" y="1616" type="curve" smooth="yes"/>
      <point x="794" y="1674"/>
      <point x="753" y="1732"/>
      <point x="681" y="1732" type="curve"/>
      <point x="596" y="1732"/>
      <point x="555" y="1666"/>
      <point x="555" y="1600" type="curve" smooth="yes"/>
      <point x="555" y="1536"/>
      <point x="596" y="1486"/>
    </contour>
    <contour>
      <point x="128" y="1292" type="line"/>
      <point x="128" y="1210" type="line"/>
      <point x="301" y="1192" type="line"/>
      <point x="301" y="96" type="line"/>
      <point x="119" y="80" type="line"/>
      <point x="119" y="0" type="line"/>
      <point x="671" y="0" type="line"/>
      <point x="671" y="80" type="line"/>
      <point x="467" y="98" type="line"/>
      <point x="467" y="162" type="line"/>
      <point x="1140" y="802" type="line"/>
      <point x="1316" y="1002" type="line"/>
      <point x="1316" y="98" type="line"/>
      <point x="1122" y="80" type="line"/>
      <point x="1122" y="0" type="line"/>
      <point x="1671" y="0" type="line"/>
      <point x="1671" y="80" type="line"/>
      <point x="1484" y="98" type="line"/>
      <point x="1484" y="1192" type="line"/>
      <point x="1657" y="1210" type="line"/>
      <point x="1657" y="1292" type="line"/>
      <point x="1122" y="1292" type="line"/>
      <point x="1122" y="1210" type="line"/>
      <point x="1316" y="1192" type="line"/>
      <point x="1316" y="1142" type="line"/>
      <point x="663" y="512" type="line"/>
      <point x="467" y="300" type="line"/>
      <point x="467" y="1192" type="line"/>
      <point x="683" y="1212" type="line"/>
      <point x="683" y="1292" type="line"/>
    </contour>
  </outline>
</glyph>
<glyph name="iigrave-cy.sc" format="1">
  <advance width="1782"/>
  <outline>
    <contour>
      <point x="976" y="1480" type="curve"/>
      <point x="978" y="1480" type="line"/>
      <point x="1038" y="1534" type="line"/>
      <point x="698" y="1918" type="line"/>
      <point x="563" y="1810" type="line"/>
      <point x="617" y="1732"/>
      <point x="900" y="1510"/>
    </contour>
    <contour>
      <point x="128" y="1292" type="line"/>
      <point x="128" y="1210" type="line"/>
      <point x="301" y="1192" type="line"/>
      <point x="301" y="96" type="line"/>
      <point x="119" y="80" type="line"/>
      <point x="119" y="0" type="line"/>
      <point x="671" y="0" type="line"/>
      <point x="671" y="80" type="line"/>
      <point x="467" y="98" type="line"/>
      <point x="467" y="162" type="line"/>
      <point x="1140" y="802" type="line"/>
      <point x="1316" y="1002" type="line"/>
      <point x="1316" y="98" type="line"/>
      <point x="1122" y="80" type="line"/>
      <point x="1122" y="0" type="line"/>
      <point x="1671" y="0" type="line"/>
      <point x="1671" y="80" type="line"/>
      <point x="1484" y="98" type="line"/>
      <point x="1484" y="1192" type="line"/>
      <point x="1657" y="1210" type="line"/>
      <point x="1657" y="1292" type="line"/>
      <point x="1122" y="1292" type="line"/>
      <point x="1122" y="1210" type="line"/>
      <point x="1316" y="1192" type="line"/>
      <point x="1316" y="1142" type="line"/>
      <point x="663" y="512" type="line"/>
      <point x="467" y="300" type="line"/>
      <point x="467" y="1192" type="line"/>
      <point x="683" y="1212" type="line"/>
      <point x="683" y="1292" type="line"/>
    </contour>
  </outline>
</glyph>
<glyph name="iishort-cy.sc" format="1">
  <advance width="1782"/>
  <outline>
    <contour>
      <point x="668" y="1803" type="curve" smooth="yes"/>
      <point x="539" y="1803" type="line"/>
      <point x="539" y="1792"/>
      <point x="537" y="1782"/>
      <point x="537" y="1773" type="curve" smooth="yes"/>
      <point x="537" y="1599"/>
      <point x="678" y="1464"/>
      <point x="915" y="1464" type="curve" smooth="yes"/>
      <point x="1156" y="1464"/>
      <point x="1288" y="1598"/>
      <point x="1288" y="1773" type="curve" smooth="yes"/>
      <point x="1288" y="1782"/>
      <point x="1285" y="1792"/>
      <point x="1285" y="1803" type="curve"/>
      <point x="1157" y="1803" type="line" smooth="yes"/>
      <point x="1129" y="1803"/>
      <point x="1124" y="1773"/>
      <point x="1124" y="1742" type="curve" smooth="yes"/>
      <point x="1124" y="1658"/>
      <point x="1072" y="1549"/>
      <point x="917" y="1549" type="curve" smooth="yes"/>
      <point x="758" y="1549"/>
      <point x="701" y="1658"/>
      <point x="701" y="1742" type="curve" smooth="yes"/>
      <point x="701" y="1773"/>
      <point x="696" y="1803"/>
    </contour>
    <contour>
      <point x="128" y="1292" type="line"/>
      <point x="128" y="1210" type="line"/>
      <point x="301" y="1192" type="line"/>
      <point x="301" y="96" type="line"/>
      <point x="119" y="80" type="line"/>
      <point x="119" y="0" type="line"/>
      <point x="671" y="0" type="line"/>
      <point x="671" y="80" type="line"/>
      <point x="467" y="98" type="line"/>
      <point x="467" y="162" type="line"/>
      <point x="1140" y="802" type="line"/>
      <point x="1316" y="1002" type="line"/>
      <point x="1316" y="98" type="line"/>
      <point x="1122" y="80" type="line"/>
      <point x="1122" y="0" type="line"/>
      <point x="1671" y="0" type="line"/>
      <point x="1671" y="80" type="line"/>
      <point x="1484" y="98" type="line"/>
      <point x="1484" y="1192" type="line"/>
      <point x="1657" y="1210" type="line"/>
      <point x="1657" y="1292" type="line"/>
      <point x="1122" y="1292" type="line"/>
      <point x="1122" y="1210" type="line"/>
      <point x="1316" y="1192" type="line"/>
      <point x="1316" y="1142" type="line"/>
      <point x="663" y="512" type="line"/>
      <point x="467" y="300" type="line"/>
      <point x="467" y="1192" type="line"/>
      <point x="683" y="1212" type="line"/>
      <point x="683" y="1292" type="line"/>
    </contour>
  </outline>
</glyph>
<glyph name="iishorttail-cy.sc" format="1">
  <advance width="1784"/>
  <outline>
    <contour>
      <point x="1488" y="0" type="move" name="bottomright"/>
    </contour>
    <contour>
      <point x="1702" y="0" type="curve"/>
      <point x="1702" y="96" type="line"/>
      <point x="1454" y="96" type="line"/>
      <point x="1455" y="0" type="line"/>
      <point x="1547" y="0" type="line"/>
      <point x="1537" y="-46"/>
      <point x="1461" y="-298"/>
      <point x="1457" y="-320" type="curve"/>
      <point x="1580" y="-320" type="line"/>
      <point x="1587" y="-300"/>
      <point x="1701" y="-12"/>
    </contour>
    <contour>
      <point x="669" y="1803" type="curve" smooth="yes"/>
      <point x="540" y="1803" type="line"/>
      <point x="540" y="1792"/>
      <point x="538" y="1782"/>
      <point x="538" y="1773" type="curve" smooth="yes"/>
      <point x="538" y="1599"/>
      <point x="678" y="1464"/>
      <point x="915" y="1464" type="curve" smooth="yes"/>
      <point x="1157" y="1464"/>
      <point x="1288" y="1598"/>
      <point x="1288" y="1773" type="curve" smooth="yes"/>
      <point x="1288" y="1782"/>
      <point x="1286" y="1792"/>
      <point x="1286" y="1803" type="curve"/>
      <point x="1158" y="1803" type="line" smooth="yes"/>
      <point x="1129" y="1803"/>
      <point x="1125" y="1773"/>
      <point x="1125" y="1742" type="curve" smooth="yes"/>
      <point x="1125" y="1658"/>
      <point x="1072" y="1549"/>
      <point x="918" y="1549" type="curve" smooth="yes"/>
      <point x="759" y="1549"/>
      <point x="701" y="1658"/>
      <point x="701" y="1742" type="curve" smooth="yes"/>
      <point x="701" y="1773"/>
      <point x="697" y="1803"/>
    </contour>
    <contour>
      <point x="128" y="1292" type="line"/>
      <point x="128" y="1210" type="line"/>
      <point x="301" y="1192" type="line"/>
      <point x="301" y="96" type="line"/>
      <point x="119" y="80" type="line"/>
      <point x="119" y="0" type="line"/>
      <point x="671" y="0" type="line"/>
      <point x="671" y="80" type="line"/>
      <point x="467" y="98" type="line"/>
      <point x="467" y="162" type="line"/>
      <point x="1140" y="802" type="line"/>
      <point x="1316" y="1002" type="line"/>
      <point x="1316" y="98" type="line"/>
      <point x="1122" y="80" type="line"/>
      <point x="1122" y="0" type="line"/>
      <point x="1671" y="0" type="line"/>
      <point x="1671" y="80" type="line"/>
      <point x="1484" y="98" type="line"/>
      <point x="1484" y="1192" type="line"/>
      <point x="1657" y="1210" type="line"/>
      <point x="1657" y="1292" type="line"/>
      <point x="1122" y="1292" type="line"/>
      <point x="1122" y="1210" type="line"/>
      <point x="1316" y="1192" type="line"/>
      <point x="1316" y="1142" type="line"/>
      <point x="663" y="512" type="line"/>
      <point x="467" y="300" type="line"/>
      <point x="467" y="1192" type="line"/>
      <point x="683" y="1212" type="line"/>
      <point x="683" y="1292" type="line"/>
    </contour>
  </outline>
</glyph>
<glyph name="imacron-cy.sc" format="1">
  <advance width="1782"/>
  <outline>
    <contour>
      <point x="1197" y="1626" type="line"/>
      <point x="630" y="1626" type="line"/>
      <point x="630" y="1504" type="line"/>
      <point x="1197" y="1504" type="line"/>
    </contour>
    <contour>
      <point x="128" y="1292" type="line"/>
      <point x="128" y="1210" type="line"/>
      <point x="301" y="1192" type="line"/>
      <point x="301" y="96" type="line"/>
      <point x="119" y="80" type="line"/>
      <point x="119" y="0" type="line"/>
      <point x="671" y="0" type="line"/>
      <point x="671" y="80" type="line"/>
      <point x="467" y="98" type="line"/>
      <point x="467" y="162" type="line"/>
      <point x="1140" y="802" type="line"/>
      <point x="1316" y="1002" type="line"/>
      <point x="1316" y="98" type="line"/>
      <point x="1122" y="80" type="line"/>
      <point x="1122" y="0" type="line"/>
      <point x="1671" y="0" type="line"/>
      <point x="1671" y="80" type="line"/>
      <point x="1484" y="98" type="line"/>
      <point x="1484" y="1192" type="line"/>
      <point x="1657" y="1210" type="line"/>
      <point x="1657" y="1292" type="line"/>
      <point x="1122" y="1292" type="line"/>
      <point x="1122" y="1210" type="line"/>
      <point x="1316" y="1192" type="line"/>
      <point x="1316" y="1142" type="line"/>
      <point x="663" y="512" type="line"/>
      <point x="467" y="300" type="line"/>
      <point x="467" y="1192" type="line"/>
      <point x="683" y="1212" type="line"/>
      <point x="683" y="1292" type="line"/>
    </contour>
  </outline>
</glyph>
<glyph name="izhitsa-cy.sc" format="1">
  <advance width="1515"/>
  <outline>
    <contour>
      <point x="1131" y="1080" type="curve"/>
      <point x="846" y="374" type="line"/>
      <point x="769" y="146" type="line"/>
      <point x="683" y="376" type="line"/>
      <point x="332" y="1192" type="line"/>
      <point x="517" y="1210" type="line"/>
      <point x="517" y="1292" type="line"/>
      <point x="22" y="1292" type="line"/>
      <point x="22" y="1210" type="line"/>
      <point x="150" y="1192" type="line"/>
      <point x="683" y="-14" type="line"/>
      <point x="818" y="-14" type="line"/>
      <point x="1233" y="974" type="line"/>
      <point x="1288" y="1152"/>
      <point x="1395" y="1178"/>
      <point x="1484" y="1178" type="curve" smooth="yes"/>
      <point x="1495" y="1178"/>
      <point x="1504" y="1178"/>
      <point x="1504" y="1178" type="curve"/>
      <point x="1504" y="1284" type="line"/>
      <point x="1494" y="1288"/>
      <point x="1474" y="1296"/>
      <point x="1418" y="1296" type="curve" smooth="yes"/>
      <point x="1318" y="1296"/>
      <point x="1180" y="1246"/>
    </contour>
  </outline>
</glyph>
<glyph name="ka-cy.sc" format="1">
  <advance width="1471"/>
  <outline>
    <contour>
      <point x="737" y="1272" type="move" name="top"/>
    </contour>
    <contour>
      <point x="737" y="648" type="move" name="center"/>
    </contour>
    <contour>
      <point x="1424" y="0" type="move" name="bottomright"/>
    </contour>
    <contour>
      <point x="777" y="672" type="curve"/>
      <point x="1262" y="1192" type="line"/>
      <point x="1421" y="1210" type="line"/>
      <point x="1421" y="1292" type="line"/>
      <point x="930" y="1292" type="line"/>
      <point x="930" y="1210" type="line"/>
      <point x="1118" y="1192" type="line"/>
      <point x="659" y="680" type="line"/>
      <point x="462" y="680" type="line"/>
      <point x="462" y="1192" type="line"/>
      <point x="642" y="1210" type="line"/>
      <point x="642" y="1292" type="line"/>
      <point x="121" y="1292" type="line"/>
      <point x="121" y="1210" type="line"/>
      <point x="296" y="1192" type="line"/>
      <point x="296" y="98" type="line"/>
      <point x="121" y="82" type="line"/>
      <point x="121" y="0" type="line"/>
      <point x="646" y="0" type="line"/>
      <point x="646" y="80" type="line"/>
      <point x="462" y="98" type="line"/>
      <point x="462" y="600" type="line"/>
      <point x="619" y="600" type="line" smooth="yes"/>
      <point x="789" y="600"/>
      <point x="1090" y="0"/>
      <point x="1234" y="0" type="curve"/>
      <point x="1447" y="0" type="line"/>
      <point x="1447" y="80" type="line"/>
      <point x="1366" y="98" type="line" smooth="yes"/>
      <point x="1249" y="124"/>
      <point x="970" y="604"/>
    </contour>
  </outline>
</glyph>
<glyph name="kabashkir-cy.sc" format="1">
  <advance width="1775"/>
  <outline>
    <contour>
      <point x="1118" y="-144" type="move" name="mark0"/>
    </contour>
    <contour>
      <point x="1104" y="678" type="curve"/>
      <point x="1582" y="1192" type="line"/>
      <point x="1746" y="1210" type="line"/>
      <point x="1746" y="1292" type="line"/>
      <point x="1258" y="1292" type="line"/>
      <point x="1258" y="1210" type="line"/>
      <point x="1430" y="1192" type="line"/>
      <point x="982" y="694" type="line"/>
      <point x="787" y="694" type="line"/>
      <point x="787" y="1192" type="line"/>
      <point x="983" y="1210" type="line"/>
      <point x="983" y="1292" type="line"/>
      <point x="112" y="1292" type="line"/>
      <point x="90" y="866" type="line"/>
      <point x="214" y="866" type="line"/>
      <point x="270" y="1192" type="line"/>
      <point x="621" y="1208" type="line"/>
      <point x="621" y="98" type="line"/>
      <point x="433" y="80" type="line"/>
      <point x="433" y="0" type="line"/>
      <point x="979" y="0" type="line"/>
      <point x="979" y="80" type="line"/>
      <point x="787" y="96" type="line"/>
      <point x="787" y="602" type="line"/>
      <point x="942" y="602" type="line" smooth="yes"/>
      <point x="1113" y="602"/>
      <point x="1411" y="0"/>
      <point x="1556" y="0" type="curve"/>
      <point x="1771" y="0" type="line"/>
      <point x="1771" y="80" type="line"/>
      <point x="1688" y="100" type="line" smooth="yes"/>
      <point x="1577" y="126"/>
      <point x="1299" y="586"/>
    </contour>
  </outline>
</glyph>
<glyph name="komide-cy.sc" format="1">
  <advance width="1348"/>
  <outline>
    <contour>
      <point x="833" y="0" type="curve"/>
      <point x="1231" y="0" type="line"/>
      <point x="1231" y="80" type="line"/>
      <point x="1050" y="96" type="line"/>
      <point x="1050" y="1198" type="line"/>
      <point x="1225" y="1222" type="line"/>
      <point x="1225" y="1292" type="line"/>
      <point x="668" y="1292" type="line"/>
      <point x="668" y="1222" type="line"/>
      <point x="882" y="1198" type="line"/>
      <point x="882" y="770" type="line"/>
      <point x="810" y="776"/>
      <point x="707" y="786"/>
      <point x="629" y="786" type="curve" smooth="yes"/>
      <point x="301" y="786"/>
      <point x="72" y="640"/>
      <point x="72" y="368" type="curve" smooth="yes"/>
      <point x="72" y="128"/>
      <point x="260" y="-14"/>
      <point x="602" y="-14" type="curve" smooth="yes"/>
      <point x="683" y="-14"/>
      <point x="768" y="-6"/>
    </contour>
    <contour>
      <point x="882" y="682" type="curve"/>
      <point x="882" y="98" type="line"/>
      <point x="823" y="88"/>
      <point x="726" y="84"/>
      <point x="647" y="84" type="curve" smooth="yes"/>
      <point x="400" y="84"/>
      <point x="250" y="186"/>
      <point x="250" y="376" type="curve" smooth="yes"/>
      <point x="250" y="592"/>
      <point x="400" y="696"/>
      <point x="646" y="696" type="curve" smooth="yes"/>
      <point x="761" y="696"/>
      <point x="817" y="690"/>
    </contour>
  </outline>
</glyph>
<glyph name="komidzje-cy.sc" format="1">
  <advance width="1375"/>
  <outline>
    <contour>
      <point x="544" y="712" type="curve" smooth="yes"/>
      <point x="418" y="712" type="line"/>
      <point x="418" y="620" type="line"/>
      <point x="569" y="620" type="line" smooth="yes"/>
      <point x="851" y="620"/>
      <point x="971" y="500"/>
      <point x="971" y="338" type="curve" smooth="yes"/>
      <point x="971" y="238"/>
      <point x="910" y="106"/>
      <point x="777" y="106" type="curve"/>
      <point x="777" y="0" type="line"/>
      <point x="1160" y="0" type="line"/>
      <point x="1159" y="-4"/>
      <point x="1167" y="-214"/>
      <point x="1169" y="-320" type="curve"/>
      <point x="1285" y="-320" type="line"/>
      <point x="1336" y="-8"/>
      <point x="1324" y="-52"/>
      <point x="1349" y="108" type="curve"/>
      <point x="1055" y="108" type="line"/>
      <point x="1104" y="132"/>
      <point x="1175" y="228"/>
      <point x="1175" y="332" type="curve" smooth="yes"/>
      <point x="1175" y="518"/>
      <point x="1002" y="682"/>
      <point x="736" y="682" type="curve"/>
      <point x="909" y="710"/>
      <point x="1078" y="814"/>
      <point x="1078" y="1014" type="curve" smooth="yes"/>
      <point x="1078" y="1214"/>
      <point x="899" y="1306"/>
      <point x="570" y="1306" type="curve" smooth="yes"/>
      <point x="412" y="1306"/>
      <point x="254" y="1256"/>
      <point x="166" y="1250" type="curve"/>
      <point x="185" y="988" type="line"/>
      <point x="294" y="988" type="line"/>
      <point x="328" y="1146" type="line"/>
      <point x="365" y="1188"/>
      <point x="467" y="1216"/>
      <point x="596" y="1216" type="curve" smooth="yes"/>
      <point x="784" y="1216"/>
      <point x="895" y="1154"/>
      <point x="898" y="992" type="curve"/>
      <point x="898" y="802"/>
      <point x="721" y="712"/>
    </contour>
  </outline>
</glyph>
<glyph name="komilje-cy.sc" format="1">
  <advance width="2101"/>
  <outline>
    <contour>
      <point x="614" y="-144" type="move" name="mark0"/>
    </contour>
    <contour>
      <point x="1896" y="290" type="curve" smooth="yes"/>
      <point x="1896" y="602" type="line"/>
      <point x="2053" y="622" type="line"/>
      <point x="2053" y="712" type="line"/>
      <point x="1556" y="712" type="line"/>
      <point x="1556" y="622" type="line"/>
      <point x="1726" y="602" type="line"/>
      <point x="1726" y="318" type="line" smooth="yes"/>
      <point x="1726" y="158"/>
      <point x="1662" y="78"/>
      <point x="1467" y="78" type="curve" smooth="yes"/>
      <point x="1297" y="78"/>
      <point x="1242" y="154"/>
      <point x="1242" y="322" type="curve" smooth="yes"/>
      <point x="1242" y="1192" type="line"/>
      <point x="1440" y="1210" type="line"/>
      <point x="1440" y="1292" type="line"/>
      <point x="274" y="1292" type="line"/>
      <point x="274" y="1210" type="line"/>
      <point x="508" y="1192" type="line"/>
      <point x="508" y="1038" type="line" smooth="yes"/>
      <point x="508" y="588"/>
      <point x="444" y="326"/>
      <point x="336" y="198" type="curve"/>
      <point x="305" y="154"/>
      <point x="265" y="130"/>
      <point x="211" y="130" type="curve" smooth="yes"/>
      <point x="124" y="130"/>
      <point x="78" y="134"/>
      <point x="55" y="138" type="curve"/>
      <point x="68" y="0" type="line"/>
      <point x="93" y="-4"/>
      <point x="143" y="-10"/>
      <point x="209" y="-10" type="curve" smooth="yes"/>
      <point x="304" y="-10"/>
      <point x="379" y="30"/>
      <point x="441" y="114" type="curve" smooth="yes"/>
      <point x="563" y="280"/>
      <point x="621" y="620"/>
      <point x="621" y="1028" type="curve" smooth="yes"/>
      <point x="621" y="1192" type="line"/>
      <point x="1072" y="1192" type="line"/>
      <point x="1072" y="298" type="line" smooth="yes"/>
      <point x="1072" y="102"/>
      <point x="1202" y="-14"/>
      <point x="1463" y="-14" type="curve" smooth="yes"/>
      <point x="1744" y="-14"/>
      <point x="1896" y="100"/>
    </contour>
  </outline>
</glyph>
<glyph name="komisje-cy.sc" format="1">
  <advance width="1546"/>
  <outline>
    <contour>
      <point x="798" y="-144" type="move" name="mark0"/>
    </contour>
    <contour>
      <point x="1339" y="290" type="curve" smooth="yes"/>
      <point x="1339" y="602" type="line"/>
      <point x="1496" y="622" type="line"/>
      <point x="1496" y="712" type="line"/>
      <point x="1002" y="712" type="line"/>
      <point x="1002" y="622" type="line"/>
      <point x="1170" y="602" type="line"/>
      <point x="1170" y="318" type="line" smooth="yes"/>
      <point x="1170" y="158"/>
      <point x="1097" y="78"/>
      <point x="869" y="78" type="curve" smooth="yes"/>
      <point x="480" y="78"/>
      <point x="275" y="376"/>
      <point x="275" y="668" type="curve" smooth="yes"/>
      <point x="275" y="1032"/>
      <point x="519" y="1216"/>
      <point x="849" y="1216" type="curve" smooth="yes"/>
      <point x="1048" y="1216"/>
      <point x="1157" y="1186"/>
      <point x="1183" y="1166" type="curve"/>
      <point x="1231" y="958" type="line"/>
      <point x="1336" y="958" type="line"/>
      <point x="1355" y="1254" type="line"/>
      <point x="1288" y="1266"/>
      <point x="1089" y="1308"/>
      <point x="869" y="1308" type="curve" smooth="yes"/>
      <point x="440" y="1308"/>
      <point x="83" y="1052"/>
      <point x="83" y="630" type="curve" smooth="yes"/>
      <point x="83" y="276"/>
      <point x="391" y="-14"/>
      <point x="865" y="-14" type="curve" smooth="yes"/>
      <point x="1170" y="-14"/>
      <point x="1339" y="100"/>
    </contour>
  </outline>
</glyph>
<glyph name="lje-cy.sc" format="1">
  <advance width="2122"/>
  <outline>
    <contour>
      <point x="665" y="-144" type="move" name="mark0"/>
    </contour>
    <contour>
      <point x="1235" y="716" type="curve"/>
      <point x="1235" y="1192" type="line"/>
      <point x="1434" y="1210" type="line"/>
      <point x="1434" y="1292" type="line"/>
      <point x="310" y="1292" type="line"/>
      <point x="310" y="1210" type="line"/>
      <point x="505" y="1192" type="line"/>
      <point x="505" y="1038" type="line" smooth="yes"/>
      <point x="505" y="590"/>
      <point x="444" y="324"/>
      <point x="333" y="196" type="curve"/>
      <point x="300" y="148"/>
      <point x="258" y="130"/>
      <point x="211" y="130" type="curve" smooth="yes"/>
      <point x="122" y="130"/>
      <point x="78" y="134"/>
      <point x="55" y="138" type="curve"/>
      <point x="65" y="0" type="line"/>
      <point x="90" y="-4"/>
      <point x="143" y="-10"/>
      <point x="209" y="-10" type="curve" smooth="yes"/>
      <point x="309" y="-10"/>
      <point x="379" y="30"/>
      <point x="439" y="112" type="curve" smooth="yes"/>
      <point x="561" y="280"/>
      <point x="621" y="616"/>
      <point x="621" y="1028" type="curve" smooth="yes"/>
      <point x="621" y="1192" type="line"/>
      <point x="1070" y="1192" type="line"/>
      <point x="1067" y="98" type="line"/>
      <point x="852" y="80" type="line"/>
      <point x="852" y="0" type="line"/>
      <point x="1155" y="0" type="line" smooth="yes"/>
      <point x="1246" y="0"/>
      <point x="1435" y="-14"/>
      <point x="1486" y="-14" type="curve" smooth="yes"/>
      <point x="1812" y="-14"/>
      <point x="2045" y="122"/>
      <point x="2045" y="382" type="curve" smooth="yes"/>
      <point x="2045" y="604"/>
      <point x="1857" y="736"/>
      <point x="1513" y="736" type="curve" smooth="yes"/>
      <point x="1406" y="736"/>
      <point x="1283" y="724"/>
    </contour>
    <contour>
      <point x="1235" y="88" type="curve"/>
      <point x="1235" y="622" type="line"/>
      <point x="1274" y="628"/>
      <point x="1376" y="634"/>
      <point x="1468" y="634" type="curve" smooth="yes"/>
      <point x="1715" y="634"/>
      <point x="1864" y="550"/>
      <point x="1864" y="368" type="curve" smooth="yes"/>
      <point x="1864" y="178"/>
      <point x="1716" y="72"/>
      <point x="1470" y="72" type="curve" smooth="yes"/>
      <point x="1357" y="72"/>
      <point x="1301" y="78"/>
    </contour>
  </outline>
</glyph>
<glyph name="nje-cy.sc" format="1">
  <advance width="2264"/>
  <outline>
    <contour>
      <point x="872" y="-144" type="move" name="mark0"/>
    </contour>
    <contour>
      <point x="1657" y="738" type="curve" smooth="yes"/>
      <point x="1382" y="738" type="line"/>
      <point x="1382" y="1192" type="line"/>
      <point x="1568" y="1214" type="line"/>
      <point x="1568" y="1292" type="line"/>
      <point x="1030" y="1292" type="line"/>
      <point x="1030" y="1214" type="line"/>
      <point x="1211" y="1192" type="line"/>
      <point x="1211" y="712" type="line"/>
      <point x="466" y="712" type="line"/>
      <point x="466" y="1192" type="line"/>
      <point x="649" y="1210" type="line"/>
      <point x="649" y="1292" type="line"/>
      <point x="126" y="1292" type="line"/>
      <point x="126" y="1210" type="line"/>
      <point x="299" y="1192" type="line"/>
      <point x="299" y="96" type="line"/>
      <point x="112" y="80" type="line"/>
      <point x="112" y="0" type="line"/>
      <point x="668" y="0" type="line"/>
      <point x="668" y="82" type="line"/>
      <point x="466" y="98" type="line"/>
      <point x="466" y="614" type="line"/>
      <point x="1211" y="614" type="line"/>
      <point x="1211" y="98" type="line"/>
      <point x="1039" y="82" type="line"/>
      <point x="1039" y="0" type="line"/>
      <point x="1257" y="0" type="line" smooth="yes"/>
      <point x="1343" y="0"/>
      <point x="1558" y="-18"/>
      <point x="1638" y="-18" type="curve" smooth="yes"/>
      <point x="1967" y="-18"/>
      <point x="2189" y="106"/>
      <point x="2189" y="382" type="curve" smooth="yes"/>
      <point x="2189" y="606"/>
      <point x="2001" y="738"/>
    </contour>
    <contour>
      <point x="1382" y="98" type="curve"/>
      <point x="1382" y="636" type="line"/>
      <point x="1612" y="636" type="line" smooth="yes"/>
      <point x="1857" y="636"/>
      <point x="2010" y="552"/>
      <point x="2010" y="370" type="curve" smooth="yes"/>
      <point x="2010" y="178"/>
      <point x="1857" y="76"/>
      <point x="1614" y="76" type="curve" smooth="yes"/>
      <point x="1512" y="76"/>
      <point x="1440" y="92"/>
    </contour>
  </outline>
</glyph>
<glyph name="pe-cy.sc" format="1">
  <advance width="1673"/>
  <outline>
    <contour>
      <point x="1188" y="0" type="move" name="bottomright"/>
    </contour>
    <contour>
      <point x="115" y="1292" type="line"/>
      <point x="115" y="1210" type="line"/>
      <point x="301" y="1192" type="line"/>
      <point x="301" y="96" type="line"/>
      <point x="126" y="80" type="line"/>
      <point x="126" y="0" type="line"/>
      <point x="676" y="0" type="line"/>
      <point x="676" y="80" type="line"/>
      <point x="469" y="96" type="line"/>
      <point x="469" y="1194" type="line"/>
      <point x="1206" y="1194" type="line"/>
      <point x="1206" y="98" type="line"/>
      <point x="1021" y="80" type="line"/>
      <point x="1021" y="0" type="line"/>
      <point x="1578" y="0" type="line"/>
      <point x="1578" y="80" type="line"/>
      <point x="1374" y="98" type="line"/>
      <point x="1374" y="1190" type="line"/>
      <point x="1560" y="1212" type="line"/>
      <point x="1560" y="1292" type="line"/>
    </contour>
  </outline>
</glyph>
<glyph name="sha-cy.sc" format="1">
  <advance width="2273"/>
  <outline>
    <contour>
      <point x="811" y="-144" type="move" name="mark0"/>
    </contour>
    <contour>
      <point x="119" y="1292" type="line"/>
      <point x="119" y="1210" type="line"/>
      <point x="301" y="1192" type="line"/>
      <point x="301" y="98" type="line"/>
      <point x="92" y="80" type="line"/>
      <point x="92" y="0" type="line"/>
      <point x="2179" y="0" type="line"/>
      <point x="2179" y="80" type="line"/>
      <point x="1972" y="98" type="line"/>
      <point x="1972" y="1192" type="line"/>
      <point x="2152" y="1210" type="line"/>
      <point x="2152" y="1292" type="line"/>
      <point x="1643" y="1292" type="line"/>
      <point x="1643" y="1210" type="line"/>
      <point x="1804" y="1192" type="line"/>
      <point x="1804" y="96" type="line"/>
      <point x="1222" y="96" type="line"/>
      <point x="1222" y="1192" type="line"/>
      <point x="1392" y="1210" type="line"/>
      <point x="1392" y="1292" type="line"/>
      <point x="897" y="1292" type="line"/>
      <point x="897" y="1210" type="line"/>
      <point x="1061" y="1192" type="line"/>
      <point x="1061" y="96" type="line"/>
      <point x="466" y="96" type="line"/>
      <point x="466" y="1190" type="line"/>
      <point x="667" y="1210" type="line"/>
      <point x="667" y="1292" type="line"/>
    </contour>
  </outline>
</glyph>
<glyph name="shha-cy.sc" format="1">
  <advance width="1418"/>
  <outline>
    <contour>
      <point x="35" y="1124" type="move" name="topleft"/>
    </contour>
    <contour>
      <point x="703" y="476" type="move" name="center"/>
    </contour>
    <contour>
      <point x="767" y="-168" type="move" name="bottom"/>
    </contour>
    <contour>
      <point x="458" y="718" type="curve"/>
      <point x="458" y="1194" type="line"/>
      <point x="677" y="1212" type="line"/>
      <point x="677" y="1292" type="line"/>
      <point x="94" y="1292" type="line"/>
      <point x="94" y="1212" type="line"/>
      <point x="290" y="1194" type="line"/>
      <point x="290" y="102" type="line"/>
      <point x="96" y="82" type="line"/>
      <point x="96" y="0" type="line"/>
      <point x="653" y="0" type="line"/>
      <point x="653" y="82" type="line"/>
      <point x="458" y="100" type="line"/>
      <point x="458" y="626" type="line"/>
      <point x="518" y="654"/>
      <point x="683" y="680"/>
      <point x="794" y="680" type="curve" smooth="yes"/>
      <point x="1074" y="680"/>
      <point x="1105" y="626"/>
      <point x="1105" y="344" type="curve" smooth="yes"/>
      <point x="1105" y="102" type="line"/>
      <point x="913" y="82" type="line"/>
      <point x="913" y="0" type="line"/>
      <point x="1408" y="0" type="line"/>
      <point x="1408" y="82" type="line"/>
      <point x="1275" y="102" type="line"/>
      <point x="1275" y="396" type="line" smooth="yes"/>
      <point x="1275" y="656"/>
      <point x="1198" y="792"/>
      <point x="881" y="792" type="curve" smooth="yes"/>
      <point x="748" y="792"/>
      <point x="564" y="766"/>
    </contour>
  </outline>
</glyph>
<glyph name="shhadescender-cy.sc" format="1">
  <advance width="1580"/>
  <outline>
    <contour>
      <point x="29" y="1292" type="move" name="topleft"/>
    </contour>
    <contour>
      <point x="698" y="646" type="move" name="center"/>
    </contour>
    <contour>
      <point x="761" y="0" type="move" name="bottom"/>
    </contour>
    <contour>
      <point x="91" y="0" type="line"/>
      <point x="647" y="0" type="line"/>
      <point x="647" y="82" type="line"/>
      <point x="452" y="102" type="line"/>
      <point x="452" y="626" type="line"/>
      <point x="512" y="654"/>
      <point x="670" y="682"/>
      <point x="788" y="682" type="curve" smooth="yes"/>
      <point x="1068" y="682"/>
      <point x="1099" y="628"/>
      <point x="1099" y="346" type="curve" smooth="yes"/>
      <point x="1099" y="104" type="line"/>
      <point x="907" y="84" type="line"/>
      <point x="907" y="0" type="line"/>
      <point x="1329" y="0" type="line"/>
      <point x="1332" y="-20"/>
      <point x="1348" y="-288"/>
      <point x="1348" y="-320" type="curve"/>
      <point x="1462" y="-320" type="line"/>
      <point x="1463" y="-312"/>
      <point x="1517" y="86"/>
      <point x="1517" y="98" type="curve"/>
      <point x="1269" y="104" type="line"/>
      <point x="1269" y="396" type="line"/>
      <point x="1269" y="694"/>
      <point x="1153" y="792"/>
      <point x="875" y="792" type="curve" smooth="yes"/>
      <point x="750" y="792"/>
      <point x="560" y="768"/>
      <point x="452" y="720" type="curve"/>
      <point x="452" y="1196" type="line"/>
      <point x="671" y="1212" type="line"/>
      <point x="671" y="1292" type="line"/>
      <point x="88" y="1292" type="line"/>
      <point x="88" y="1214" type="line"/>
      <point x="284" y="1196" type="line"/>
      <point x="284" y="102" type="line"/>
      <point x="91" y="82" type="line"/>
    </contour>
  </outline>
</glyph>
<glyph name="tedescender-cy.sc" format="1">
  <advance width="1506"/>
  <outline>
    <contour>
      <point x="1190" y="98" type="curve"/>
      <point x="840" y="98" type="line"/>
      <point x="840" y="1206" type="line"/>
      <point x="1250" y="1196" type="line"/>
      <point x="1308" y="838" type="line"/>
      <point x="1419" y="838" type="line"/>
      <point x="1395" y="1292" type="line"/>
      <point x="111" y="1292" type="line"/>
      <point x="75" y="838" type="line"/>
      <point x="191" y="838" type="line"/>
      <point x="258" y="1196" type="line"/>
      <point x="661" y="1206" type="line"/>
      <point x="661" y="98" type="line"/>
      <point x="385" y="80" type="line"/>
      <point x="385" y="0" type="line"/>
      <point x="1004" y="0" type="line"/>
      <point x="1010" y="-100"/>
      <point x="1014" y="-220"/>
      <point x="1021" y="-320" type="curve"/>
      <point x="1132" y="-320" type="line"/>
      <point x="1153" y="-194"/>
      <point x="1169" y="-52"/>
    </contour>
  </outline>
</glyph>
<glyph name="uhungarumlaut-cy.sc" format="1">
  <advance width="1399"/>
  <outline>
    <contour>
      <point x="459" y="1470" type="line"/>
      <point x="556" y="1530"/>
      <point x="787" y="1712"/>
      <point x="855" y="1812" type="curve"/>
      <point x="734" y="1908" type="line"/>
      <point x="390" y="1520" type="line"/>
    </contour>
    <contour>
      <point x="914" y="1470" type="line"/>
      <point x="1015" y="1530"/>
      <point x="1260" y="1720"/>
      <point x="1322" y="1812" type="curve"/>
      <point x="1209" y="1906" type="line"/>
      <point x="847" y="1524" type="line"/>
    </contour>
    <contour>
      <point x="806" y="266" type="curve"/>
      <point x="1269" y="1192" type="line"/>
      <point x="1377" y="1210" type="line"/>
      <point x="1377" y="1292" type="line"/>
      <point x="935" y="1292" type="line"/>
      <point x="935" y="1210" type="line"/>
      <point x="1129" y="1192" type="line"/>
      <point x="838" y="574" type="line"/>
      <point x="764" y="410" type="line"/>
      <point x="696" y="572" type="line"/>
      <point x="323" y="1192" type="line"/>
      <point x="541" y="1210" type="line"/>
      <point x="541" y="1292" type="line"/>
      <point x="22" y="1292" type="line"/>
      <point x="22" y="1210" type="line"/>
      <point x="136" y="1192" type="line"/>
      <point x="686" y="280" type="line"/>
      <point x="634" y="166"/>
      <point x="580" y="124"/>
      <point x="453" y="124" type="curve" smooth="yes"/>
      <point x="435" y="124"/>
      <point x="310" y="126"/>
      <point x="306" y="128" type="curve"/>
      <point x="306" y="10" type="line"/>
      <point x="347" y="-6"/>
      <point x="406" y="-20"/>
      <point x="477" y="-20" type="curve" smooth="yes"/>
      <point x="692" y="-20"/>
      <point x="752" y="162"/>
    </contour>
  </outline>
</glyph>
<glyph name="ushort-cy.sc" format="1">
  <advance width="1399"/>
  <outline>
    <contour>
      <point x="454" y="1803" type="curve" smooth="yes"/>
      <point x="326" y="1803" type="line"/>
      <point x="326" y="1792"/>
      <point x="324" y="1782"/>
      <point x="324" y="1773" type="curve" smooth="yes"/>
      <point x="324" y="1599"/>
      <point x="464" y="1464"/>
      <point x="701" y="1464" type="curve" smooth="yes"/>
      <point x="942" y="1464"/>
      <point x="1074" y="1598"/>
      <point x="1074" y="1773" type="curve" smooth="yes"/>
      <point x="1074" y="1782"/>
      <point x="1072" y="1792"/>
      <point x="1072" y="1803" type="curve"/>
      <point x="943" y="1803" type="line" smooth="yes"/>
      <point x="915" y="1803"/>
      <point x="911" y="1773"/>
      <point x="911" y="1742" type="curve" smooth="yes"/>
      <point x="911" y="1658"/>
      <point x="858" y="1549"/>
      <point x="703" y="1549" type="curve" smooth="yes"/>
      <point x="544" y="1549"/>
      <point x="487" y="1658"/>
      <point x="487" y="1742" type="curve" smooth="yes"/>
      <point x="487" y="1773"/>
      <point x="483" y="1803"/>
    </contour>
    <contour>
      <point x="806" y="266" type="curve"/>
      <point x="1269" y="1192" type="line"/>
      <point x="1377" y="1210" type="line"/>
      <point x="1377" y="1292" type="line"/>
      <point x="935" y="1292" type="line"/>
      <point x="935" y="1210" type="line"/>
      <point x="1129" y="1192" type="line"/>
      <point x="838" y="574" type="line"/>
      <point x="764" y="410" type="line"/>
      <point x="696" y="572" type="line"/>
      <point x="323" y="1192" type="line"/>
      <point x="541" y="1210" type="line"/>
      <point x="541" y="1292" type="line"/>
      <point x="22" y="1292" type="line"/>
      <point x="22" y="1210" type="line"/>
      <point x="136" y="1192" type="line"/>
      <point x="686" y="280" type="line"/>
      <point x="634" y="166"/>
      <point x="580" y="124"/>
      <point x="453" y="124" type="curve" smooth="yes"/>
      <point x="435" y="124"/>
      <point x="310" y="126"/>
      <point x="306" y="128" type="curve"/>
      <point x="306" y="10" type="line"/>
      <point x="347" y="-6"/>
      <point x="406" y="-20"/>
      <point x="477" y="-20" type="curve" smooth="yes"/>
      <point x="692" y="-20"/>
      <point x="752" y="162"/>
    </contour>
  </outline>
</glyph>
<glyph name="yat-cy.sc" format="1">
  <advance width="1548"/>
  <outline>
    <contour>
      <point x="677" y="688" type="curve"/>
      <point x="677" y="1040" type="line"/>
      <point x="1042" y="1020" type="line"/>
      <point x="1088" y="880" type="line"/>
      <point x="1205" y="880" type="line"/>
      <point x="1184" y="1122" type="line"/>
      <point x="677" y="1122" type="line"/>
      <point x="677" y="1292" type="line"/>
      <point x="871" y="1316" type="line"/>
      <point x="871" y="1390" type="line"/>
      <point x="319" y="1390" type="line"/>
      <point x="319" y="1316" type="line"/>
      <point x="509" y="1294" type="line"/>
      <point x="509" y="1122" type="line"/>
      <point x="19" y="1122" type="line"/>
      <point x="-7" y="880" type="line"/>
      <point x="117" y="880" type="line"/>
      <point x="163" y="1020" type="line"/>
      <point x="509" y="1040" type="line"/>
      <point x="509" y="96" type="line"/>
      <point x="312" y="80" type="line"/>
      <point x="312" y="0" type="line"/>
      <point x="596" y="0" type="line" smooth="yes"/>
      <point x="685" y="0"/>
      <point x="856" y="-14"/>
      <point x="914" y="-14" type="curve" smooth="yes"/>
      <point x="1240" y="-14"/>
      <point x="1471" y="128"/>
      <point x="1471" y="364" type="curve" smooth="yes"/>
      <point x="1471" y="552"/>
      <point x="1320" y="708"/>
      <point x="941" y="708" type="curve" smooth="yes"/>
      <point x="846" y="708"/>
      <point x="728" y="696"/>
    </contour>
    <contour>
      <point x="677" y="90" type="curve"/>
      <point x="677" y="606" type="line"/>
      <point x="719" y="614"/>
      <point x="823" y="616"/>
      <point x="896" y="616" type="curve" smooth="yes"/>
      <point x="1133" y="616"/>
      <point x="1289" y="512"/>
      <point x="1289" y="350" type="curve" smooth="yes"/>
      <point x="1289" y="178"/>
      <point x="1136" y="74"/>
      <point x="897" y="74" type="curve" smooth="yes"/>
      <point x="790" y="74"/>
      <point x="731" y="80"/>
    </contour>
  </outline>
</glyph>
<glyph name="zedieresis-cy.sc" format="1">
  <advance width="1274"/>
  <outline>
    <contour>
      <point x="862" y="1486" type="curve"/>
      <point x="951" y="1486"/>
      <point x="995" y="1546"/>
      <point x="995" y="1616" type="curve" smooth="yes"/>
      <point x="995" y="1674"/>
      <point x="954" y="1732"/>
      <point x="882" y="1732" type="curve" smooth="yes"/>
      <point x="799" y="1732"/>
      <point x="756" y="1666"/>
      <point x="756" y="1600" type="curve" smooth="yes"/>
      <point x="756" y="1536"/>
      <point x="799" y="1486"/>
    </contour>
    <contour>
      <point x="389" y="1486" type="curve" smooth="yes"/>
      <point x="476" y="1486"/>
      <point x="520" y="1546"/>
      <point x="520" y="1616" type="curve" smooth="yes"/>
      <point x="520" y="1674"/>
      <point x="479" y="1732"/>
      <point x="407" y="1732" type="curve"/>
      <point x="322" y="1732"/>
      <point x="281" y="1666"/>
      <point x="281" y="1600" type="curve" smooth="yes"/>
      <point x="281" y="1536"/>
      <point x="322" y="1486"/>
    </contour>
    <contour>
      <point x="175" y="1250" type="curve"/>
      <point x="191" y="988" type="line"/>
      <point x="300" y="988" type="line"/>
      <point x="337" y="1146" type="line"/>
      <point x="371" y="1188"/>
      <point x="475" y="1216"/>
      <point x="601" y="1216" type="curve" smooth="yes"/>
      <point x="791" y="1216"/>
      <point x="921" y="1154"/>
      <point x="921" y="992" type="curve" smooth="yes"/>
      <point x="921" y="802"/>
      <point x="728" y="712"/>
      <point x="550" y="712" type="curve" smooth="yes"/>
      <point x="426" y="712" type="line"/>
      <point x="426" y="620" type="line"/>
      <point x="576" y="620" type="line" smooth="yes"/>
      <point x="881" y="620"/>
      <point x="955" y="486"/>
      <point x="955" y="364" type="curve" smooth="yes"/>
      <point x="955" y="174"/>
      <point x="843" y="84"/>
      <point x="644" y="84" type="curve" smooth="yes"/>
      <point x="499" y="84"/>
      <point x="395" y="104"/>
      <point x="334" y="130" type="curve"/>
      <point x="278" y="350" type="line"/>
      <point x="201" y="350" type="line"/>
      <point x="166" y="56" type="line"/>
      <point x="240" y="34"/>
      <point x="397" y="-10"/>
      <point x="596" y="-10" type="curve" smooth="yes"/>
      <point x="987" y="-10"/>
      <point x="1152" y="140"/>
      <point x="1152" y="378" type="curve" smooth="yes"/>
      <point x="1152" y="546"/>
      <point x="1017" y="676"/>
      <point x="746" y="682" type="curve"/>
      <point x="926" y="712"/>
      <point x="1104" y="818"/>
      <point x="1104" y="1014" type="curve" smooth="yes"/>
      <point x="1104" y="1214"/>
      <point x="909" y="1306"/>
      <point x="576" y="1306" type="curve" smooth="yes"/>
      <point x="417" y="1306"/>
      <point x="263" y="1256"/>
    </contour>
  </outline>
</glyph>
<glyph name="zhe-cy.sc" format="1">
  <advance width="2186"/>
  <outline>
    <contour>
      <point x="1093" y="1272" type="move" name="top"/>
    </contour>
    <contour>
      <point x="2140" y="0" type="move" name="bottomright"/>
    </contour>
    <contour>
      <point x="1490" y="668" type="curve"/>
      <point x="1973" y="1192" type="line"/>
      <point x="2135" y="1210" type="line"/>
      <point x="2135" y="1292" type="line"/>
      <point x="1648" y="1292" type="line"/>
      <point x="1648" y="1210" type="line"/>
      <point x="1822" y="1190" type="line"/>
      <point x="1375" y="680" type="line"/>
      <point x="1175" y="680" type="line"/>
      <point x="1175" y="1192" type="line"/>
      <point x="1358" y="1210" type="line"/>
      <point x="1358" y="1292" type="line"/>
      <point x="835" y="1292" type="line"/>
      <point x="835" y="1210" type="line"/>
      <point x="1013" y="1192" type="line"/>
      <point x="1013" y="680" type="line"/>
      <point x="814" y="680" type="line"/>
      <point x="362" y="1192" type="line"/>
      <point x="538" y="1210" type="line"/>
      <point x="538" y="1292" type="line"/>
      <point x="51" y="1292" type="line"/>
      <point x="51" y="1210" type="line"/>
      <point x="213" y="1192" type="line"/>
      <point x="694" y="672" type="line"/>
      <point x="500" y="600"/>
      <point x="229" y="122"/>
      <point x="112" y="98" type="curve" smooth="yes"/>
      <point x="26" y="80" type="line"/>
      <point x="26" y="0" type="line"/>
      <point x="231" y="0" type="line" smooth="yes"/>
      <point x="376" y="0"/>
      <point x="686" y="600"/>
      <point x="854" y="600" type="curve" smooth="yes"/>
      <point x="1013" y="600" type="line"/>
      <point x="1013" y="98" type="line"/>
      <point x="835" y="80" type="line"/>
      <point x="835" y="0" type="line"/>
      <point x="1360" y="0" type="line"/>
      <point x="1360" y="80" type="line"/>
      <point x="1175" y="98" type="line"/>
      <point x="1175" y="600" type="line"/>
      <point x="1333" y="600" type="line" smooth="yes"/>
      <point x="1503" y="600"/>
      <point x="1811" y="0"/>
      <point x="1956" y="0" type="curve"/>
      <point x="2163" y="0" type="line"/>
      <point x="2163" y="80" type="line"/>
      <point x="2074" y="98" type="line" smooth="yes"/>
      <point x="1957" y="122"/>
      <point x="1684" y="596"/>
    </contour>
  </outline>
</glyph>
<glyph name="zhedieresis-cy.sc" format="1">
  <advance width="2186"/>
  <outline>
    <contour>
      <point x="1318" y="1486" type="curve"/>
      <point x="1406" y="1486"/>
      <point x="1450" y="1546"/>
      <point x="1450" y="1616" type="curve" smooth="yes"/>
      <point x="1450" y="1674"/>
      <point x="1409" y="1732"/>
      <point x="1337" y="1732" type="curve" smooth="yes"/>
      <point x="1254" y="1732"/>
      <point x="1211" y="1666"/>
      <point x="1211" y="1600" type="curve" smooth="yes"/>
      <point x="1211" y="1536"/>
      <point x="1254" y="1486"/>
    </contour>
    <contour>
      <point x="845" y="1486" type="curve" smooth="yes"/>
      <point x="931" y="1486"/>
      <point x="975" y="1546"/>
      <point x="975" y="1616" type="curve" smooth="yes"/>
      <point x="975" y="1674"/>
      <point x="934" y="1732"/>
      <point x="862" y="1732" type="curve"/>
      <point x="777" y="1732"/>
      <point x="736" y="1666"/>
      <point x="736" y="1600" type="curve" smooth="yes"/>
      <point x="736" y="1536"/>
      <point x="777" y="1486"/>
    </contour>
    <contour>
      <point x="1490" y="668" type="curve"/>
      <point x="1973" y="1192" type="line"/>
      <point x="2135" y="1210" type="line"/>
      <point x="2135" y="1292" type="line"/>
      <point x="1648" y="1292" type="line"/>
      <point x="1648" y="1210" type="line"/>
      <point x="1822" y="1190" type="line"/>
      <point x="1375" y="680" type="line"/>
      <point x="1175" y="680" type="line"/>
      <point x="1175" y="1192" type="line"/>
      <point x="1358" y="1210" type="line"/>
      <point x="1358" y="1292" type="line"/>
      <point x="835" y="1292" type="line"/>
      <point x="835" y="1210" type="line"/>
      <point x="1013" y="1192" type="line"/>
      <point x="1013" y="680" type="line"/>
      <point x="814" y="680" type="line"/>
      <point x="362" y="1192" type="line"/>
      <point x="538" y="1210" type="line"/>
      <point x="538" y="1292" type="line"/>
      <point x="51" y="1292" type="line"/>
      <point x="51" y="1210" type="line"/>
      <point x="213" y="1192" type="line"/>
      <point x="694" y="672" type="line"/>
      <point x="500" y="600"/>
      <point x="229" y="122"/>
      <point x="112" y="98" type="curve" smooth="yes"/>
      <point x="26" y="80" type="line"/>
      <point x="26" y="0" type="line"/>
      <point x="231" y="0" type="line" smooth="yes"/>
      <point x="376" y="0"/>
      <point x="686" y="600"/>
      <point x="854" y="600" type="curve" smooth="yes"/>
      <point x="1013" y="600" type="line"/>
      <point x="1013" y="98" type="line"/>
      <point x="835" y="80" type="line"/>
      <point x="835" y="0" type="line"/>
      <point x="1360" y="0" type="line"/>
      <point x="1360" y="80" type="line"/>
      <point x="1175" y="98" type="line"/>
      <point x="1175" y="600" type="line"/>
      <point x="1333" y="600" type="line" smooth="yes"/>
      <point x="1503" y="600"/>
      <point x="1811" y="0"/>
      <point x="1956" y="0" type="curve"/>
      <point x="2163" y="0" type="line"/>
      <point x="2163" y="80" type="line"/>
      <point x="2074" y="98" type="line" smooth="yes"/>
      <point x="1957" y="122"/>
      <point x="1684" y="596"/>
    </contour>
  </outline>
</glyph>
